<svg width="551" height="412" viewBox="0 0 551 412" fill="none" xmlns="http://www.w3.org/2000/svg">
<path d="M283.131 380.665L489.412 269.793C490.899 269.026 492.15 267.877 493.036 266.466C493.922 265.054 494.409 263.433 494.447 261.771C494.486 260.109 494.073 258.467 493.252 257.017C492.432 255.568 491.234 254.364 489.784 253.53L289.812 134.937C288.282 134.036 286.541 133.549 284.761 133.525C282.982 133.501 281.228 133.941 279.674 134.8L61.4641 256.031C59.9794 256.826 58.7391 258.005 57.8747 259.443C57.0103 260.88 56.5539 262.523 56.5539 264.197C56.5539 265.871 57.0103 267.513 57.8747 268.951C58.7391 270.388 59.9794 271.567 61.4641 272.362L256.036 380.474C260.172 382.762 264.823 383.979 269.559 384.012C274.295 384.045 278.963 382.894 283.131 380.665V380.665Z" fill="#00275E"/>
<path d="M248.212 215.99C248.212 215.99 206.487 238.088 196.611 290.811C196.611 290.811 237.247 299.353 291.658 254.706" fill="#EB773A"/>
<path d="M247.688 222.714C247.688 222.714 229.891 238.552 224.877 249.731C219.863 260.91 213.32 277.268 213.32 277.268C213.32 277.268 244.658 279.919 274.123 262.031C303.587 244.142 275.5 210.687 247.688 222.714Z" fill="#FFAE46"/>
<path d="M265.375 217.151C264.301 218.942 245.966 229.191 242.536 243.978L248.515 239.482C248.515 239.482 238.349 253.612 234.037 261.744C234.037 261.744 258.832 251.945 258.061 252.533L251.049 257.808C251.049 257.808 269.907 257.412 282.732 246.041C295.556 234.671 277.924 214.842 277.924 214.842L265.375 217.151Z" fill="#FAD374"/>
<path d="M320.71 217.015C320.71 217.015 317.472 237.855 310.544 242.98C303.615 248.105 281.12 265.092 281.12 265.092L277.387 260.199C277.387 260.199 292.898 232.772 295.639 220.664C298.38 208.556 320.71 217.015 320.71 217.015Z" fill="#68E1FD"/>
<path opacity="0.61" d="M320.71 217.015C320.71 217.015 317.472 237.855 310.544 242.98C303.615 248.105 281.12 265.092 281.12 265.092L277.387 260.199C277.387 260.199 292.898 232.772 295.639 220.664C298.38 208.556 320.71 217.015 320.71 217.015Z" fill="#363636"/>
<path d="M298.311 187.688C298.311 187.688 277.208 185.146 270.293 190.421C263.378 195.696 240.87 212.532 240.87 212.532L244.603 217.425C244.603 217.425 275.417 210.031 287.911 210.701C300.405 211.371 298.311 187.688 298.311 187.688Z" fill="#68E1FD"/>
<path opacity="0.61" d="M298.311 187.688C298.311 187.688 277.208 185.146 270.293 190.421C263.378 195.696 240.87 212.532 240.87 212.532L244.603 217.425C244.603 217.425 275.417 210.031 287.911 210.701C300.405 211.371 298.311 187.688 298.311 187.688Z" fill="#363636"/>
<path d="M399.627 152.703C405.205 144.057 409.71 134.774 413.043 125.056C413.043 125.056 400.784 125.193 382.463 130.605C383.923 139.856 391.375 147.236 399.627 152.703Z" fill="#68E1FD"/>
<path d="M350.48 190.263C356.301 185.887 356.957 177.019 351.944 170.456C346.932 163.893 338.15 162.12 332.328 166.495C326.507 170.871 325.851 179.739 330.864 186.302C335.876 192.865 344.659 194.638 350.48 190.263Z" fill="#68E1FD"/>
<path d="M455.856 92.3398C455.856 92.3398 340.422 120.82 281.768 205.139C281.768 205.139 267.993 219.721 274.646 227.825C281.299 235.929 303.477 229.478 303.477 229.478C303.477 229.478 376.361 208.952 455.856 92.3398Z" fill="#68E1FD"/>
<path d="M281.768 205.139C281.768 205.139 267.221 203.39 262.483 206.984C257.744 210.578 242.206 222.222 242.206 222.222L244.782 225.597C244.782 225.597 266.023 220.5 274.618 220.964C283.214 221.429 281.768 205.139 281.768 205.139Z" fill="#68E1FD"/>
<path d="M299.289 228.084C299.289 228.084 297.058 242.447 292.278 246.028C287.498 249.608 272.001 261.265 272.001 261.265L269.439 257.931C269.439 257.931 280.128 239.031 282.016 230.681C283.903 222.331 299.289 228.084 299.289 228.084Z" fill="#68E1FD"/>
<path opacity="0.29" d="M281.768 205.139C281.768 205.139 267.221 203.39 262.483 206.984C257.744 210.578 242.206 222.222 242.206 222.222L244.782 225.597C244.782 225.597 266.023 220.5 274.618 220.964C283.214 221.429 281.768 205.139 281.768 205.139Z" fill="#363636"/>
<path opacity="0.29" d="M299.289 228.084C299.289 228.084 297.058 242.447 292.278 246.028C287.498 249.608 272.001 261.265 272.001 261.265L269.439 257.931C269.439 257.931 280.128 239.031 282.016 230.681C283.903 222.331 299.289 228.084 299.289 228.084Z" fill="#363636"/>
<path d="M399.778 112.88C399.778 112.88 399.379 132.245 420.041 139.419L408.057 152.921C408.057 152.921 382.105 138.449 386.127 119.439L399.778 112.88Z" fill="#68E1FD"/>
<path d="M325.655 157.773C325.655 157.773 325.889 190.571 356.717 199.905L333.823 215.43C333.823 215.43 300.763 204.046 306.893 174.869L325.655 157.773Z" fill="#68E1FD"/>
<path d="M381.378 153.044C383.427 151.503 383.83 148.606 382.277 146.573C380.724 144.539 377.804 144.14 375.754 145.68C373.705 147.221 373.302 150.118 374.855 152.152C376.408 154.185 379.328 154.584 381.378 153.044Z" fill="#68E1FD"/>
<path d="M364.47 177.239C369.838 173.244 370.926 165.689 366.9 160.364C362.874 155.038 355.259 153.959 349.891 157.953C344.523 161.947 343.435 169.502 347.461 174.828C351.487 180.153 359.102 181.233 364.47 177.239Z" fill="#68E1FD"/>
<path opacity="0.61" d="M399.778 112.88C399.778 112.88 399.379 132.245 420.041 139.419L408.057 152.921C408.057 152.921 382.105 138.449 386.127 119.439L399.778 112.88Z" fill="#606060"/>
<path opacity="0.61" d="M325.655 157.773C325.655 157.773 325.889 190.571 356.717 199.905L333.823 215.43C333.823 215.43 300.763 204.046 306.893 174.869L325.655 157.773Z" fill="#606060"/>
<path opacity="0.61" d="M381.378 153.044C383.427 151.503 383.83 148.606 382.277 146.573C380.724 144.539 377.804 144.14 375.754 145.68C373.705 147.221 373.302 150.118 374.855 152.152C376.408 154.185 379.328 154.584 381.378 153.044Z" fill="#606060"/>
<path opacity="0.61" d="M364.47 177.239C369.838 173.244 370.926 165.689 366.9 160.364C362.874 155.038 355.259 153.959 349.891 157.953C344.523 161.947 343.435 169.502 347.461 174.828C351.487 180.153 359.102 181.233 364.47 177.239Z" fill="#606060"/>
<path d="M421.928 237.336C421.563 237.336 421.213 237.48 420.954 237.736C420.696 237.993 420.551 238.34 420.551 238.703C420.551 239.065 420.696 239.413 420.954 239.669C421.213 239.925 421.563 240.069 421.928 240.069C422.294 240.069 422.644 239.925 422.902 239.669C423.161 239.413 423.306 239.065 423.306 238.703C423.306 238.34 423.161 237.993 422.902 237.736C422.644 237.48 422.294 237.336 421.928 237.336Z" fill="white"/>
<path d="M352.144 291.768V292.642C352.144 293.005 352.289 293.353 352.548 293.609C352.806 293.865 353.156 294.009 353.522 294.009C353.887 294.009 354.237 293.865 354.496 293.609C354.754 293.353 354.899 293.005 354.899 292.642V291.768C354.899 291.405 354.754 291.058 354.496 290.802C354.237 290.545 353.887 290.401 353.522 290.401C353.156 290.401 352.806 290.545 352.548 290.802C352.289 291.058 352.144 291.405 352.144 291.768Z" fill="white"/>
<path d="M255.664 313.524V314.399C255.664 314.761 255.809 315.109 256.068 315.365C256.326 315.621 256.676 315.765 257.042 315.765C257.407 315.765 257.757 315.621 258.016 315.365C258.274 315.109 258.419 314.761 258.419 314.399V313.524C258.419 313.162 258.274 312.814 258.016 312.558C257.757 312.302 257.407 312.158 257.042 312.158C256.676 312.158 256.326 312.302 256.068 312.558C255.809 312.814 255.664 313.162 255.664 313.524Z" fill="white"/>
<path d="M345.628 246.902C345.263 246.902 344.913 247.046 344.654 247.303C344.396 247.559 344.251 247.906 344.251 248.269C344.251 248.631 344.396 248.979 344.654 249.235C344.913 249.492 345.263 249.636 345.628 249.636C345.994 249.636 346.344 249.492 346.603 249.235C346.861 248.979 347.006 248.631 347.006 248.269C347.006 247.906 346.861 247.559 346.603 247.303C346.344 247.046 345.994 246.902 345.628 246.902Z" fill="white"/>
<path d="M180.742 244.265C180.376 244.265 180.026 244.409 179.768 244.665C179.509 244.921 179.364 245.269 179.364 245.631C179.364 245.994 179.509 246.341 179.768 246.598C180.026 246.854 180.376 246.998 180.742 246.998C181.107 246.998 181.457 246.854 181.716 246.598C181.974 246.341 182.119 245.994 182.119 245.631C182.119 245.269 181.974 244.921 181.716 244.665C181.457 244.409 181.107 244.265 180.742 244.265Z" fill="white"/>
<path d="M118.837 248.269V249.144C118.837 249.506 118.982 249.854 119.24 250.11C119.499 250.366 119.849 250.51 120.214 250.51C120.58 250.51 120.93 250.366 121.188 250.11C121.447 249.854 121.592 249.506 121.592 249.144V248.269C121.592 247.906 121.447 247.559 121.188 247.303C120.93 247.046 120.58 246.902 120.214 246.902C119.849 246.902 119.499 247.046 119.24 247.303C118.982 247.559 118.837 247.906 118.837 248.269Z" fill="white"/>
<path d="M148.288 291.276C147.923 291.276 147.572 291.42 147.314 291.676C147.056 291.932 146.91 292.28 146.91 292.643C146.91 293.005 147.056 293.353 147.314 293.609C147.572 293.865 147.923 294.009 148.288 294.009C148.653 294.009 149.004 293.865 149.262 293.609C149.52 293.353 149.665 293.005 149.665 292.643C149.665 292.28 149.52 291.932 149.262 291.676C149.004 291.42 148.653 291.276 148.288 291.276Z" fill="white"/>
<path d="M193.897 213.831C193.532 213.831 193.181 213.975 192.923 214.231C192.665 214.487 192.519 214.835 192.519 215.197C192.519 215.56 192.665 215.907 192.923 216.164C193.181 216.42 193.532 216.564 193.897 216.564C194.262 216.564 194.613 216.42 194.871 216.164C195.129 215.907 195.274 215.56 195.274 215.197C195.274 214.835 195.129 214.487 194.871 214.231C194.613 213.975 194.262 213.831 193.897 213.831Z" fill="white"/>
<path d="M261.422 170.332C261.057 170.332 260.706 170.476 260.448 170.732C260.19 170.988 260.044 171.336 260.044 171.698C260.044 172.061 260.19 172.408 260.448 172.665C260.706 172.921 261.057 173.065 261.422 173.065C261.787 173.065 262.138 172.921 262.396 172.665C262.654 172.408 262.799 172.061 262.799 171.698C262.799 171.336 262.654 170.988 262.396 170.732C262.138 170.476 261.787 170.332 261.422 170.332Z" fill="white"/>
<path d="M302.651 340.87C302.285 340.87 301.935 341.014 301.677 341.27C301.418 341.526 301.273 341.874 301.273 342.236C301.273 342.599 301.418 342.946 301.677 343.203C301.935 343.459 302.285 343.603 302.651 343.603C303.016 343.603 303.366 343.459 303.625 343.203C303.883 342.946 304.028 342.599 304.028 342.236C304.028 341.874 303.883 341.526 303.625 341.27C303.366 341.014 303.016 340.87 302.651 340.87Z" fill="white"/>
<path d="M393.855 264.053C384.997 264.053 384.97 277.719 393.855 277.719C402.74 277.719 402.74 264.053 393.855 264.053Z" fill="#FFAE46"/>
<path d="M146.538 256.223C137.681 256.223 137.654 269.889 146.538 269.889C155.423 269.889 155.41 256.223 146.538 256.223Z" fill="#FFAE46"/>
<path d="M278.572 346.104C277.28 344.823 275.529 344.103 273.702 344.103C271.876 344.103 270.125 344.823 268.833 346.104C267.567 347.404 266.847 349.134 266.822 350.942V351.816C266.842 353.625 267.562 355.357 268.833 356.654C270.125 357.935 271.876 358.655 273.702 358.655C275.529 358.655 277.28 357.935 278.572 356.654C279.838 355.354 280.557 353.624 280.583 351.816V350.942C280.563 349.133 279.843 347.401 278.572 346.104V346.104Z" fill="#00AEE1"/>
<path d="M152.558 163.28C169.143 163.28 182.588 149.942 182.588 133.488C182.588 117.035 169.143 103.696 152.558 103.696C135.973 103.696 122.529 117.035 122.529 133.488C122.529 149.942 135.973 163.28 152.558 163.28Z" fill="#68E1FD"/>
<path d="M176.981 117.103C180.15 116.236 183.37 115.569 186.624 115.107C188.257 114.861 189.904 114.706 191.555 114.643C193.269 114.547 194.989 114.648 196.679 114.943C197.657 115.108 198.593 115.461 199.434 115.982C199.942 116.313 200.373 116.746 200.702 117.253C201.047 117.805 201.246 118.435 201.28 119.084C201.292 120.157 201.042 121.217 200.55 122.173C200.16 122.986 199.699 123.763 199.173 124.496C197.084 127.157 194.669 129.549 191.982 131.616C186.826 135.688 181.349 139.344 175.604 142.549C169.92 145.809 164.066 148.769 158.068 151.418C152.068 154.111 145.909 156.438 139.623 158.388C136.456 159.391 133.238 160.226 129.981 160.888C126.644 161.615 123.254 162.077 119.842 162.269C118.095 162.358 116.343 162.289 114.608 162.064C112.752 161.855 110.945 161.338 109.263 160.533C108.339 160.092 107.493 159.506 106.756 158.798C105.93 157.987 105.336 156.973 105.034 155.859C104.768 154.796 104.768 153.684 105.034 152.621C105.261 151.696 105.608 150.805 106.067 149.969C107.883 147.061 110.217 144.505 112.955 142.426C115.484 140.348 118.189 138.492 121.041 136.877C118.678 139.042 116.425 141.323 114.291 143.71C112.156 145.969 110.386 148.541 109.043 151.336C108.502 152.401 108.374 153.627 108.685 154.78C108.862 155.208 109.147 155.584 109.511 155.873C109.983 156.237 110.502 156.536 111.054 156.761C113.794 157.662 116.704 157.938 119.567 157.568C125.806 156.848 131.946 155.446 137.874 153.386C143.935 151.445 149.844 149.013 155.781 146.553C167.529 141.56 178.774 135.474 189.365 128.377C191.909 126.633 194.259 124.627 196.376 122.391C196.846 121.868 197.27 121.306 197.644 120.71C197.937 120.253 198.134 119.742 198.222 119.207C198.235 119.025 198.198 118.843 198.116 118.679C198.033 118.516 197.908 118.377 197.754 118.278C197.233 117.902 196.651 117.62 196.032 117.444C192.985 116.717 189.85 116.423 186.72 116.57C183.455 116.583 180.218 116.775 176.981 117.103Z" fill="#8CC63F"/>
</svg>
