<svg width="335" height="335" viewBox="0 0 335 335" fill="none" xmlns="http://www.w3.org/2000/svg">
<path d="M278.822 198.338C278.269 197.37 277.646 196.402 277.024 195.434C270.386 185.132 261.674 176.765 251.786 170.542C227.24 155.192 194.12 152.98 167.292 167.777L167.569 168.053C196.471 157.543 229.038 164.803 251.026 183.887C259.946 191.562 267.275 201.243 272.253 212.513C272.737 213.55 273.152 214.587 273.567 215.694C279.306 230.214 279.513 250.612 270.179 266.307C291.821 248.399 289.678 216.938 278.822 198.338Z" fill="#FF0202" stroke="#FF0202"/>
<path d="M287.534 176.765C286.774 175.866 285.944 174.967 285.114 174.069C276.264 164.596 265.754 157.543 254.345 153.118C226.203 142.055 191.769 146.549 167.154 167.569L167.292 167.638C194.051 152.979 227.171 155.192 251.648 170.473C261.536 176.696 270.248 185.062 276.886 195.365C277.508 196.333 278.131 197.301 278.684 198.269C289.609 216.869 291.752 248.33 270.179 266.169C270.11 266.238 270.11 266.307 270.041 266.376L270.11 266.445C270.456 266.307 270.87 266.1 271.285 265.961C314.708 245.149 306.272 198.753 287.534 176.765Z" fill="#C60000" stroke="#C60000"/>
<path d="M166.877 167.915L166.808 167.846L166.877 167.915Z" fill="#940000" stroke="#940000"/>
<path d="M312.634 167.915C311.596 166.878 310.49 165.84 309.453 164.872C297.837 154.155 284.284 146.618 270.041 142.262C234.777 131.476 194.881 139.911 166.946 167.707C191.562 146.757 225.857 142.331 253.93 153.394C265.339 157.889 275.849 164.872 284.699 174.345C285.529 175.244 286.359 176.143 287.119 177.042C305.857 198.961 314.362 245.357 270.801 266.238C270.455 266.376 270.11 266.515 269.833 266.653C284.077 272.53 301.086 269.626 312.634 258.079C337.526 233.187 337.526 192.807 312.634 167.915Z" fill="#940000" stroke="#940000"/>
<path d="M56.3846 136.731C56.9377 137.699 57.56 138.667 58.1823 139.635C64.8202 149.937 73.5324 158.304 83.42 164.527C107.966 179.877 141.086 182.089 167.914 167.293L167.638 167.016C138.736 177.526 106.169 170.266 84.1806 151.182C75.261 143.507 67.9317 133.827 62.9533 122.556C62.4693 121.519 62.0544 120.482 61.6395 119.375C55.9005 104.855 55.6931 84.4575 65.0276 68.7617C43.3163 86.6701 45.4597 118.131 56.3846 136.731Z" fill="#FF0202" stroke="#FF0202"/>
<path d="M47.6726 158.234C48.4331 159.133 49.2629 160.032 50.0926 160.931C58.9431 170.404 69.453 177.457 80.8619 181.882C109.004 192.945 143.438 188.451 168.053 167.431L167.915 167.362C141.156 182.02 108.036 179.808 83.5585 164.527C73.6709 158.304 64.9587 149.937 58.3208 139.635C57.6985 138.667 57.0762 137.699 56.523 136.731C45.6674 118.062 43.5239 86.67 65.097 68.8308C65.1661 68.7616 65.1661 68.6925 65.2352 68.6233L65.1661 68.5542C64.8204 68.6925 64.4055 68.8999 63.9906 69.0382C20.4988 89.9198 28.9344 136.316 47.6726 158.234Z" fill="#C60000" stroke="#C60000"/>
<path d="M168.26 167.154L168.329 167.223L168.26 167.154C168.329 167.154 168.329 167.154 168.26 167.154Z" fill="#940000"/>
<path d="M168.26 167.154L168.329 167.223L168.26 167.154ZM168.26 167.154C168.329 167.154 168.329 167.154 168.26 167.154Z" stroke="#940000"/>
<path d="M22.5733 167.154C23.6105 168.191 24.7168 169.228 25.754 170.196C37.3703 180.914 50.9226 188.451 65.1663 192.807C100.43 203.593 140.326 195.158 168.261 167.362C143.645 188.312 109.35 192.738 81.277 181.674C69.8681 177.18 59.3582 170.196 50.5077 160.724C49.678 159.825 48.8482 158.926 48.0876 158.027C29.3495 136.108 20.8447 89.7123 64.4057 68.8307C64.7514 68.6924 65.0972 68.5541 65.3737 68.4159C51.13 62.5386 34.1205 65.4427 22.5733 76.9898C-2.38779 101.882 -2.31864 142.262 22.5733 167.154Z" fill="#940000" stroke="#940000"/>
<path d="M137.353 279.168C138.321 278.615 139.289 277.993 140.257 277.37C150.559 270.732 158.926 262.02 165.149 252.133C180.499 227.586 182.711 194.466 167.915 167.638L167.638 167.915C178.148 196.817 170.888 229.384 151.804 251.372C144.129 260.292 134.449 267.69 123.178 272.669C122.141 273.153 121.104 273.567 119.998 273.982C105.477 279.721 85.0796 279.929 69.3838 270.594C87.2922 292.236 118.684 290.093 137.353 279.168Z" fill="#FF0202" stroke="#FF0202"/>
<path d="M158.857 287.88C159.755 287.12 160.654 286.29 161.553 285.46C171.026 276.61 178.079 266.1 182.504 254.691C193.567 226.549 189.073 192.115 168.053 167.5L167.984 167.638C182.642 194.397 180.43 227.517 165.149 251.994C158.926 261.882 150.559 270.594 140.257 277.232C139.289 277.854 138.321 278.477 137.353 279.03C118.753 289.955 87.2921 292.098 69.4528 270.525C69.3837 270.456 69.3146 270.456 69.2454 270.387L69.1763 270.456C69.3146 270.801 69.522 271.216 69.6603 271.631C90.5419 315.054 136.938 306.618 158.857 287.88Z" fill="#C60000" stroke="#C60000"/>
<path d="M167.776 167.292L167.846 167.223L167.776 167.292C167.776 167.223 167.776 167.223 167.776 167.292Z" fill="#940000"/>
<path d="M167.776 167.292L167.846 167.223L167.776 167.292ZM167.776 167.292C167.776 167.223 167.776 167.223 167.776 167.292Z" stroke="#940000"/>
<path d="M167.777 312.98C168.814 311.943 169.851 310.836 170.819 309.799C181.536 298.183 189.073 284.631 193.429 270.387C204.216 235.123 195.78 195.227 167.984 167.292C188.935 191.908 193.36 226.204 182.297 254.276C177.803 265.685 170.819 276.195 161.346 285.045C160.447 285.875 159.548 286.705 158.65 287.465C136.731 306.204 90.3349 314.708 69.4533 271.147C69.315 270.802 69.1767 270.456 69.0384 270.179C63.1611 284.423 66.0652 301.433 77.6123 312.98C102.504 337.941 142.885 337.872 167.777 312.98Z" fill="#940000" stroke="#940000"/>
<path d="M198.407 56.3157C197.439 56.8689 196.471 57.4912 195.503 58.1135C185.2 64.7513 176.834 73.4635 170.611 83.3512C155.261 107.897 153.048 141.018 167.845 167.846L168.122 167.569C157.612 138.667 164.872 106.1 183.956 84.1118C191.631 75.1921 201.311 67.8628 212.582 62.8844C213.619 62.4004 214.656 61.9855 215.762 61.5707C230.283 55.8317 250.68 55.6243 266.376 64.9588C248.468 43.2474 217.007 45.3909 198.407 56.3157Z" fill="#FF0202" stroke="#FF0202"/>
<path d="M176.834 47.6032C175.935 48.3638 175.036 49.1935 174.137 50.0233C164.665 58.8738 157.612 69.3837 153.187 80.7925C142.124 108.934 146.618 143.368 167.638 167.984L167.707 167.845C153.048 141.086 155.261 107.966 170.542 83.4892C176.765 73.6015 185.131 64.8893 195.434 58.2515C196.402 57.6292 197.37 57.0069 198.338 56.4537C216.938 45.5289 248.398 43.3854 266.238 64.9585C266.307 65.0276 266.376 65.0276 266.445 65.0968L266.514 65.0276C266.376 64.6819 266.169 64.267 266.03 63.8522C245.218 20.4295 198.822 28.8651 176.834 47.6032Z" fill="#C60000" stroke="#C60000"/>
<path d="M167.984 168.191L167.915 168.26L167.984 168.191C167.984 168.26 167.984 168.26 167.984 168.191Z" fill="#940000"/>
<path d="M167.984 168.191L167.915 168.26L167.984 168.191ZM167.984 168.191C167.984 168.26 167.984 168.26 167.984 168.191Z" stroke="#940000"/>
<path d="M167.984 22.504C166.946 23.5412 165.909 24.6475 164.941 25.6847C154.224 37.3009 146.687 50.8532 142.331 65.097C131.545 100.361 139.98 140.257 167.776 168.191C146.825 143.576 142.4 109.28 153.463 81.2076C157.958 69.7988 164.941 59.2888 174.414 50.4384C175.313 49.6086 176.212 48.7789 177.111 48.0183C199.029 29.2802 245.425 20.7754 266.307 64.3364C266.445 64.6821 266.584 65.0278 266.722 65.3044C272.599 51.0607 269.695 34.0511 258.148 22.504C233.256 -2.45712 192.876 -2.38798 167.984 22.504Z" fill="#940000" stroke="#940000"/>
<path d="M224.406 267.967C224.682 266.86 224.959 265.754 225.166 264.648C227.794 252.686 227.517 240.585 224.89 229.177C218.39 200.966 196.54 176.005 167.085 167.5V167.915C194.95 180.914 212.859 209.125 214.933 238.096C215.763 249.851 214.172 261.882 209.747 273.36C209.332 274.397 208.917 275.503 208.433 276.541C202.21 290.853 187.967 305.443 170.266 309.937C198.269 312.565 219.012 288.848 224.406 267.967Z" fill="#FF0202" stroke="#FF0202"/>
<path d="M245.84 258.839C245.909 257.595 245.978 256.419 246.047 255.244C246.531 242.314 243.973 229.868 239.133 218.667C227.033 190.94 199.513 169.781 167.292 167.223V167.361C196.609 175.935 218.39 200.896 224.889 229.038C227.517 240.447 227.724 252.478 225.166 264.509C224.958 265.616 224.682 266.722 224.405 267.828C218.943 288.71 198.269 312.426 170.334 309.799C170.265 309.799 170.196 309.868 170.127 309.868V309.937C170.473 310.076 170.888 310.214 171.302 310.352C216.73 326.463 243.627 287.673 245.84 258.839Z" fill="#C60000" stroke="#C60000"/>
<path d="M166.808 167.293V167.154V167.293Z" fill="#940000" stroke="#940000"/>
<path d="M269.902 270.318C269.902 268.866 269.833 267.345 269.833 265.893C269.142 250.058 264.924 235.192 257.94 222.055C240.654 189.488 206.497 167.293 167.084 167.154C199.237 169.782 226.687 190.871 238.718 218.529C243.627 229.73 246.117 242.176 245.633 255.106C245.563 256.281 245.494 257.526 245.425 258.701C243.212 287.466 216.315 326.256 170.818 310.214C170.473 310.076 170.127 309.938 169.781 309.799C175.728 324.043 189.764 334 206.151 334C241.346 334.138 269.902 305.581 269.902 270.318Z" fill="#940000" stroke="#940000"/>
<path d="M110.732 67.1021C110.456 68.2084 110.179 69.3148 109.972 70.4211C107.344 82.3831 107.621 94.4833 110.248 105.892C116.748 134.103 138.597 159.064 168.053 167.569V167.154C140.188 154.155 122.279 125.944 120.205 96.9725C119.375 85.218 120.966 73.1868 125.391 61.7089C125.806 60.6717 126.221 59.5654 126.705 58.5282C132.928 44.2153 147.171 29.6259 164.872 25.1315C136.938 22.504 116.195 46.2205 110.732 67.1021Z" fill="#FF0202" stroke="#FF0202"/>
<path d="M89.3666 76.1601C89.2975 77.4047 89.2284 78.5801 89.1592 79.7556C88.6752 92.6856 91.2335 105.132 96.0737 116.333C108.174 144.06 135.693 165.218 167.915 167.776V167.638C138.597 159.064 116.817 134.103 110.317 105.961C107.69 94.5525 107.482 82.5214 110.041 70.4902C110.248 69.3839 110.525 68.2776 110.801 67.1713C116.264 46.2897 136.938 22.5732 164.872 25.2007C164.941 25.2007 165.011 25.1315 165.08 25.1315V25.0624C164.734 24.9241 164.319 24.7858 163.904 24.6475C118.407 8.606 91.5793 47.396 89.3666 76.1601Z" fill="#C60000" stroke="#C60000"/>
<path d="M168.33 167.776V167.915V167.776C168.399 167.776 168.399 167.776 168.33 167.776Z" fill="#940000"/>
<path d="M168.33 167.776V167.915V167.776ZM168.33 167.776C168.399 167.776 168.399 167.776 168.33 167.776Z" stroke="#940000"/>
<path d="M65.3042 64.6821C65.3042 66.1342 65.3733 67.6553 65.3733 69.1074C66.0648 84.9414 70.2826 99.8075 77.2662 112.945C94.5523 145.512 128.71 167.707 168.122 167.846C135.97 165.218 108.519 144.129 96.4883 116.471C91.5791 105.27 89.0899 92.8239 89.5739 79.8939C89.643 78.7184 89.7122 77.4738 89.7813 76.2984C91.9939 47.5343 118.891 8.7443 164.388 24.7858C164.734 24.9241 165.08 25.0624 165.425 25.2007C159.479 10.9569 145.443 1.00013 129.055 1.00013C93.8608 0.930981 65.3042 29.4876 65.3042 64.6821Z" fill="#940000" stroke="#940000"/>
<path d="M67.1715 224.337C68.2778 224.613 69.3841 224.89 70.4904 225.097C82.4524 227.725 94.5527 227.448 105.961 224.821C134.172 218.321 159.134 196.471 167.638 167.016H167.223C154.224 194.881 126.013 212.789 97.0419 214.864C85.2873 215.694 73.2562 214.103 61.7782 209.678C60.741 209.263 59.6347 208.848 58.5976 208.364C44.2847 202.141 29.6952 187.897 25.2008 170.197C22.5733 198.2 46.2899 218.943 67.1715 224.337Z" fill="#FF0202" stroke="#FF0202"/>
<path d="M76.2294 245.771C77.474 245.84 78.6495 245.909 79.8249 245.979C92.7549 246.463 105.201 243.904 116.402 239.064C144.129 226.964 165.287 199.444 167.846 167.223H167.707C159.134 196.54 134.172 218.321 106.031 224.82C94.6218 227.448 82.5907 227.655 70.5596 225.097C69.4533 224.89 68.347 224.613 67.2407 224.336C46.359 218.874 22.6425 198.2 25.27 170.265C25.27 170.196 25.2009 170.127 25.2009 170.058H25.1317C24.9934 170.404 24.8551 170.819 24.7168 171.234C8.67534 216.661 47.4654 243.559 76.2294 245.771Z" fill="#C60000" stroke="#C60000"/>
<path d="M167.845 166.739H167.984H167.845Z" fill="#940000" stroke="#940000"/>
<path d="M64.7511 269.833C66.2032 269.833 67.7244 269.764 69.1764 269.764C85.0105 269.073 99.8765 264.855 113.014 257.871C145.581 240.585 167.776 206.428 167.915 167.016C165.287 199.168 144.198 226.618 116.54 238.649C105.339 243.558 92.8929 246.048 79.9629 245.564C78.7875 245.495 77.5429 245.425 76.3674 245.356C47.6033 243.144 8.81332 216.246 24.8548 170.749C24.9931 170.404 25.1314 170.058 25.2697 169.712C10.9568 175.659 1 189.695 1 206.082C1 241.277 29.5566 269.833 64.7511 269.833Z" fill="#940000" stroke="#940000"/>
<path d="M268.036 110.663C266.929 110.387 265.823 110.11 264.717 109.903C252.755 107.275 240.655 107.552 229.246 110.179C201.035 116.679 176.074 138.529 167.569 167.984H167.984C180.983 140.119 209.194 122.21 238.165 120.136C249.92 119.306 261.951 120.897 273.429 125.322C274.466 125.737 275.572 126.152 276.61 126.636C290.922 132.859 305.512 147.102 310.006 164.803C312.634 136.869 288.917 116.126 268.036 110.663Z" fill="#FF0202" stroke="#FF0202"/>
<path d="M258.908 89.2976C257.664 89.2284 256.488 89.1593 255.313 89.0901C242.383 88.6061 229.937 91.1645 218.735 96.0046C191.009 108.105 169.85 135.624 167.292 167.846H167.43C176.004 138.528 200.965 116.748 229.107 110.248C240.516 107.621 252.547 107.413 264.578 109.972C265.685 110.179 266.791 110.456 267.897 110.732C288.779 116.195 312.495 136.869 309.868 164.803C309.868 164.872 309.937 164.942 309.937 165.011H310.006C310.144 164.665 310.283 164.25 310.421 163.835C326.532 118.338 287.742 91.5102 258.908 89.2976Z" fill="#C60000" stroke="#C60000"/>
<path d="M167.362 168.26H167.223H167.362C167.362 168.33 167.362 168.33 167.362 168.26Z" fill="#940000"/>
<path d="M167.362 168.26H167.223H167.362ZM167.362 168.26C167.362 168.33 167.362 168.33 167.362 168.26Z" stroke="#940000"/>
<path d="M270.387 65.2354C268.935 65.2354 267.413 65.3045 265.961 65.3045C250.127 65.9959 235.261 70.2138 222.124 77.1973C189.557 94.4834 167.361 128.641 167.223 168.053C169.851 135.901 190.94 108.451 218.597 96.4195C229.799 91.5102 242.245 89.021 255.175 89.505C256.35 89.5742 257.595 89.6433 258.77 89.7125C287.534 91.9251 326.324 118.822 310.283 164.319C310.145 164.665 310.006 165.011 309.868 165.356C324.112 159.41 334.069 145.374 334.069 128.986C334.207 93.792 305.65 65.2354 270.387 65.2354Z" fill="#940000" stroke="#940000"/>
<path d="M167.5 176C172.194 176 176 172.194 176 167.5C176 162.806 172.194 159 167.5 159C162.806 159 159 162.806 159 167.5C159 172.194 162.806 176 167.5 176Z" fill="#FF0202"/>
<path d="M168 173C171.314 173 174 170.538 174 167.5C174 164.462 171.314 162 168 162C164.686 162 162 164.462 162 167.5C162 170.538 164.686 173 168 173Z" fill="#C60000"/>
<path d="M167.5 171C169.433 171 171 169.433 171 167.5C171 165.567 169.433 164 167.5 164C165.567 164 164 165.567 164 167.5C164 169.433 165.567 171 167.5 171Z" fill="#940000"/>
</svg>
