<svg width="367" height="114" viewBox="0 0 367 114" fill="none" xmlns="http://www.w3.org/2000/svg">
<path d="M55.9104 7.64999C49.7624 7.64999 44.3034 8.86899 39.5334 11.307C34.7634 13.745 31.0004 16.766 28.2444 20.37C25.4884 23.974 23.2624 28.055 21.5664 32.613C18.5984 40.245 17.1144 47.665 17.1144 54.873C17.1144 62.081 17.7504 68.6 19.0224 74.43C20.2944 80.154 22.3084 85.454 25.0644 90.33C27.8204 95.206 31.6894 99.022 36.6714 101.778C41.6534 104.534 47.2184 105.912 53.3664 105.912C59.6204 105.912 65.0264 104.852 69.5844 102.732C74.1424 100.612 77.7994 97.962 80.5554 94.782C83.4174 91.496 85.8024 87.786 87.7104 83.652C91.1024 76.338 92.9044 68.918 93.1164 61.392C93.1164 25.564 80.7144 7.64999 55.9104 7.64999ZM96.4554 94.464C92.0034 100.294 85.9614 104.958 78.3294 108.456C70.6974 111.848 61.8464 113.544 51.7764 113.544C34.3924 113.544 21.4604 108.88 12.9804 99.552C4.60642 90.118 0.419418 77.292 0.419418 61.074C0.419418 44.75 4.87142 30.758 13.7754 19.098C18.2274 13.268 24.2694 8.657 31.9014 5.265C39.5334 1.767 48.3844 0.0179978 58.4544 0.0179978C75.8384 0.0179978 88.7174 4.682 97.0914 14.01C105.571 23.338 109.811 36.111 109.811 52.329C109.811 68.547 105.359 82.592 96.4554 94.464ZM183.768 28.797C181.648 21.059 178.68 15.759 174.864 12.897C171.154 10.035 166.278 8.60399 160.236 8.60399C154.194 8.60399 149.583 10.088 146.403 13.056C143.223 15.918 141.633 19.469 141.633 23.709C141.633 30.599 145.184 36.376 152.286 41.04L177.408 57.417C188.432 64.625 193.944 73.158 193.944 83.016C193.944 90.966 190.764 97.909 184.404 103.845C178.15 109.675 168.981 112.59 156.897 112.59C144.813 112.59 134.266 110.682 125.256 106.866C126.952 98.174 127.8 90.383 127.8 83.493L132.093 81.585C133.683 90.277 136.174 96.266 139.566 99.552C142.958 102.838 148.205 104.481 155.307 104.481C162.515 104.481 167.974 102.732 171.684 99.234C175.5 95.736 177.408 91.602 177.408 86.832C177.408 80.366 173.963 74.907 167.073 70.455L141.633 53.76C131.881 47.4 127.005 39.238 127.005 29.274C127.005 21.536 130.026 14.858 136.068 9.23999C142.11 3.516 150.007 0.653999 159.759 0.653999C162.939 0.653999 166.437 1.078 170.253 1.92599C174.175 2.668 177.143 3.039 179.157 3.039C181.171 3.039 183.503 2.72099 186.153 2.08499V4.47C186.153 12.208 186.789 19.681 188.061 26.889L183.768 28.797ZM237.242 13.056C236.394 19.31 235.97 30.652 235.97 47.082C235.97 73.688 236.288 90.224 236.924 96.69L237.242 100.029C237.454 101.937 238.461 103.315 240.263 104.163C242.065 104.905 245.563 105.806 250.757 106.866L250.28 111.477C243.602 111.159 236.341 111 228.497 111C220.653 111 213.392 111.159 206.714 111.477L206.237 106.866C211.643 105.806 215.3 104.852 217.208 104.004C219.116 103.156 220.176 101.831 220.388 100.029C221.236 93.775 221.66 82.433 221.66 66.003C221.66 39.397 221.342 22.808 220.706 16.236L220.388 13.056C220.176 11.148 219.222 9.823 217.526 9.08099C215.83 8.23299 212.438 7.27899 207.35 6.21899L207.827 1.608C214.505 1.92599 221.501 2.08499 228.815 2.08499C236.129 2.08499 243.125 1.92599 249.803 1.608L250.28 6.21899C245.192 7.27899 241.8 8.23299 240.104 9.08099C238.408 9.823 237.454 11.148 237.242 13.056ZM295.722 111.477C289.044 111.159 282.472 111 276.006 111C269.646 111 263.127 111.159 256.449 111.477L255.972 106.866C260.848 105.912 264.293 104.905 266.307 103.845C268.321 102.679 269.646 101.089 270.282 99.075L301.923 2.244L315.756 0.653999L352.803 100.029C353.545 101.831 354.764 103.209 356.46 104.163C358.262 105.011 361.548 105.912 366.318 106.866L365.841 111.477C359.163 111.159 351.902 111 344.058 111C336.214 111 328.953 111.159 322.275 111.477L321.798 106.866C329.324 105.382 333.67 104.004 334.836 102.732C335.472 102.202 335.79 101.672 335.79 101.142C335.79 100.506 332.875 90.966 327.045 72.522H291.111L282.525 100.824C282.525 102.202 283.585 103.315 285.705 104.163C287.825 105.011 291.323 105.912 296.199 106.866L295.722 111.477ZM308.442 17.19H307.806C307.064 19.734 306.11 22.808 304.944 26.412C303.884 29.91 302.241 35.422 300.015 42.948C297.789 50.368 295.563 57.788 293.337 65.208H324.501L308.442 17.19Z" fill="#1A1A1A"/>
<path d="M201.626 126.9H366.318V134.85H201.626V126.9Z" fill="#1A1A1A"/>
</svg>
