<svg width="264" height="238" viewBox="0 0 264 238" fill="none" xmlns="http://www.w3.org/2000/svg">
<g clip-path="url(#clip0_189_38372)">
<path d="M39.0244 127.069V127.204C38.8089 128.257 39.2351 129.671 38.421 130.557C37.6069 131.443 35.9164 131.659 34.8293 131.754C33.5028 131.874 32.205 132.109 30.8833 132.233C30.2512 132.286 29.6095 132.305 28.9678 132.305C28.3261 132.305 28.1489 132.023 27.5311 131.884C27.5024 130.849 28.781 130.298 29.5185 129.833C30.4428 129.179 31.3024 128.438 32.0853 127.62C33.035 126.741 34.157 126.069 35.3801 125.647C36.7449 125.244 38.1193 126.097 39.0196 127.084L39.0244 127.069ZM58.1798 119.539C58.5669 119.521 58.9516 119.61 59.2908 119.798C59.59 119.961 59.8655 120.164 60.1097 120.401C60.2218 120.501 60.3274 120.609 60.4258 120.722L61.1202 123.702C61.0859 123.851 61.0394 123.996 60.9813 124.138C60.8668 124.46 60.7055 124.763 60.5024 125.038C60.2794 125.352 59.9769 125.6 59.626 125.757C59.1993 125.893 58.762 125.994 58.3187 126.059C57.1852 126.192 56.0412 126.209 54.9042 126.111C53.6208 126.001 52.328 126.093 51.0731 126.384C49.8206 126.711 48.6139 127.194 47.4815 127.821C46.4847 128.368 45.4528 128.848 44.3927 129.259C43.9738 129.411 43.547 129.541 43.1141 129.647C42.731 129.733 42.4005 129.867 42.0749 129.699C41.7322 129.52 41.4381 129.26 41.2177 128.942C41.0872 128.783 40.9672 128.615 40.8585 128.439L40.1689 125.465C40.1861 125.258 40.2181 125.053 40.2647 124.851C40.3216 124.471 40.4694 124.109 40.6957 123.798C40.9208 123.501 41.2751 123.477 41.6535 123.376C42.0318 123.275 42.4867 123.213 42.9656 123.156C44.1029 123.062 45.2451 123.043 46.3848 123.098C47.6702 123.149 48.9569 123.041 50.2159 122.777C51.4792 122.479 52.6879 121.984 53.798 121.311C54.771 120.714 55.8048 120.223 56.882 119.845C57.2989 119.701 57.7287 119.597 58.1654 119.534L58.1798 119.539ZM87.3056 110.595C87.8675 110.571 88.4253 110.7 88.9195 110.969C89.3554 111.205 89.7567 111.5 90.1119 111.846C90.283 111.993 90.443 112.153 90.5908 112.325L91.6012 116.636C91.4176 117.329 91.1198 117.986 90.7201 118.581C90.3922 119.036 89.9493 119.397 89.4367 119.625C88.8227 119.824 88.1931 119.972 87.5546 120.066C85.9082 120.266 84.2452 120.291 82.5934 120.143C80.7151 119.979 78.8228 120.112 76.9856 120.535C75.1668 121.004 73.4134 121.698 71.7658 122.6C70.3209 123.405 68.8252 124.116 67.2882 124.727C66.6795 124.947 66.0592 125.135 65.4301 125.287C64.8698 125.407 64.4005 125.599 63.9168 125.359C63.4213 125.097 62.9947 124.721 62.6717 124.262C62.4805 124.033 62.3091 123.788 62.1593 123.529L61.1441 119.218C61.1664 118.921 61.2129 118.626 61.283 118.337C61.3631 117.781 61.5803 117.254 61.9151 116.804C62.236 116.358 62.7436 116.325 63.3087 116.186C63.9409 116.045 64.5803 115.939 65.2242 115.869C66.8744 115.734 68.5316 115.705 70.1855 115.783C72.0626 115.859 73.9419 115.698 75.7788 115.304C77.6151 114.872 79.3718 114.152 80.9843 113.173C82.3947 112.304 83.8942 111.589 85.4571 111.041C86.0669 110.838 86.6935 110.691 87.3296 110.6L87.3056 110.595ZM127.154 99.2469C127.916 99.2116 128.674 99.3768 129.352 99.7259C129.941 100.05 130.484 100.453 130.966 100.924C131.19 101.121 131.398 101.336 131.588 101.565L132.958 107.434C132.894 107.724 132.805 108.008 132.69 108.282C132.464 108.917 132.151 109.519 131.761 110.068C131.319 110.696 130.717 111.192 130.017 111.505C129.183 111.777 128.328 111.977 127.46 112.104C125.545 112.42 123.232 112.344 120.717 112.195C118.168 111.983 115.602 112.166 113.108 112.737C110.637 113.376 108.255 114.319 106.016 115.544C104.052 116.635 102.019 117.595 99.929 118.418C99.1033 118.717 98.2625 118.973 97.4101 119.184C96.6439 119.352 95.9974 119.616 95.3461 119.28C94.6721 118.927 94.0937 118.416 93.6604 117.79C93.3973 117.479 93.1618 117.146 92.9565 116.794L91.5869 110.916C91.6211 110.51 91.6835 110.107 91.7736 109.709C91.885 108.957 92.1757 108.242 92.6212 107.625C93.0666 107.036 93.7514 106.988 94.5368 106.792C95.3222 106.595 96.1698 106.48 97.1323 106.361C99.3717 106.173 101.621 106.136 103.865 106.25C106.415 106.353 108.967 106.142 111.465 105.623C113.958 105.031 116.343 104.053 118.534 102.725C120.717 101.489 122.762 100.377 124.616 99.8265C125.453 99.5626 126.31 99.364 127.178 99.2325L127.154 99.2469ZM24.902 90.9644C26.3866 90.8685 27.603 91.9943 28.3069 93.144L28.2782 93.2733C27.7993 94.2314 27.9286 95.726 26.8846 96.3966C25.8407 97.0673 24.0736 96.9284 22.9434 96.7942C21.5498 96.6266 20.1659 96.5691 18.7867 96.3871C18.1354 96.296 17.4697 96.1811 16.8041 96.0422C16.1384 95.9032 16.0283 95.5631 15.4345 95.3236C15.6404 94.3032 17.0723 94.0494 17.9343 93.7524C19.0256 93.3251 20.0742 92.7958 21.0662 92.1715C22.2523 91.5232 23.5538 91.1131 24.8973 90.9644H24.902ZM49.6317 89.9296C50.0289 89.994 50.4031 90.1589 50.7188 90.4087C50.9873 90.6293 51.2228 90.8874 51.4179 91.1751C51.5103 91.2959 51.5951 91.4223 51.6717 91.5536L51.7005 94.6146C51.6351 94.7538 51.5548 94.8855 51.461 95.0074C51.2643 95.3038 51.0292 95.5728 50.7619 95.8074C50.4567 96.0695 50.0887 96.2477 49.6939 96.3248C49.227 96.3634 48.7577 96.3634 48.2908 96.3248C47.1018 96.2182 45.9271 95.9886 44.7854 95.6398C43.4814 95.2538 42.1274 95.0633 40.7675 95.0745C39.413 95.1149 38.0686 95.3208 36.764 95.6877C35.619 96.0129 34.4546 96.2656 33.2778 96.4445C32.7558 96.502 32.2865 96.5403 31.8746 96.5451C31.4628 96.5499 31.0988 96.6026 30.7971 96.3631C30.4901 96.1163 30.247 95.7992 30.0884 95.4386C29.9903 95.2555 29.9071 95.0649 29.8394 94.8685L29.8058 91.8123C29.866 91.6137 29.9445 91.4213 30.0405 91.2374C30.1841 90.8665 30.4178 90.5373 30.7205 90.2793C31.0174 90.0254 31.3766 90.0829 31.7932 90.0686C32.2587 90.0703 32.7239 90.0958 33.1868 90.1452C34.3704 90.2954 35.5429 90.5227 36.697 90.8254C38.0144 91.156 39.3663 91.3296 40.7244 91.3428C42.0826 91.3254 43.4305 91.1041 44.7231 90.6865C45.8559 90.3121 47.0241 90.0552 48.2094 89.9201C48.6765 89.887 49.1454 89.887 49.6125 89.9201L49.6317 89.9296ZM81.5015 87.5009C82.0785 87.6019 82.6206 87.8474 83.0771 88.2147C83.4702 88.5325 83.814 88.9071 84.0971 89.326C84.2365 89.5005 84.3584 89.6882 84.461 89.8865L84.5185 94.3272C84.4126 94.524 84.2925 94.713 84.1593 94.8925C83.8861 95.3144 83.5539 95.6952 83.1728 96.023C82.7262 96.4016 82.1906 96.6604 81.6165 96.7751C80.9408 96.8308 80.2617 96.8308 79.586 96.7751C77.8589 96.628 76.1515 96.3037 74.4906 95.8074C72.5973 95.2476 70.6321 94.9684 68.6578 94.9787C66.6884 95.0446 64.7337 95.3437 62.8346 95.8697C61.1694 96.3387 59.4775 96.7066 57.768 96.9715C57.0209 97.0577 56.3313 97.1056 55.7423 97.12C55.1532 97.1344 54.6121 97.2062 54.1667 96.8517C53.7211 96.4967 53.3692 96.0378 53.1419 95.5152C52.9985 95.2476 52.8768 94.9688 52.778 94.6817L52.7253 90.2506C52.818 89.961 52.9333 89.6791 53.0701 89.4075C53.2813 88.8781 53.6222 88.4102 54.0614 88.047C54.4924 87.6877 55.0192 87.7644 55.6226 87.75C56.2259 87.7356 56.9155 87.7883 57.653 87.8506C59.3652 88.0688 61.0622 88.3936 62.734 88.8231C64.6443 89.3076 66.6057 89.5617 68.5764 89.5799C70.5512 89.5527 72.5109 89.2297 74.3901 88.6219C76.0488 88.077 77.7596 87.7062 79.495 87.5153C80.1709 87.4654 80.8496 87.4654 81.5255 87.5153L81.5015 87.5009ZM124.903 85.0482C125.688 85.1758 126.425 85.5061 127.044 86.0063C127.571 86.4454 128.038 86.9529 128.432 87.5153C128.618 87.7536 128.778 88.0105 128.911 88.2817L128.993 94.3128C128.85 94.5799 128.69 94.8375 128.514 95.0841C128.136 95.6589 127.68 96.1781 127.158 96.6266C126.554 97.1429 125.827 97.4943 125.047 97.6469C124.128 97.7174 123.206 97.7174 122.288 97.6469C120.267 97.5463 117.897 96.9667 115.368 96.2769C112.794 95.5175 110.122 95.1414 107.438 95.1607C104.765 95.2441 102.112 95.6494 99.5364 96.3679C97.2725 97.0085 94.971 97.5077 92.6452 97.8625C91.6395 97.9822 90.7296 98.0493 89.8964 98.0685C89.0631 98.0876 88.3592 98.1787 87.7653 97.7092C87.1588 97.2257 86.6803 96.6006 86.3718 95.8889C86.1816 95.529 86.0214 95.1541 85.8929 94.7679L85.8163 88.7368C85.9463 88.3466 86.1064 87.967 86.2952 87.6015C86.582 86.8822 87.0447 86.2464 87.6408 85.7524C88.2251 85.2734 88.9386 85.3692 89.7671 85.35C90.5956 85.3309 91.515 85.3932 92.5255 85.4842C94.8568 85.7874 97.1665 86.2386 99.4406 86.8351C102.034 87.4888 104.696 87.8345 107.371 87.865C110.055 87.831 112.718 87.395 115.273 86.5716C117.791 85.8339 120.138 85.2015 122.164 85.0578C123.078 84.9608 124 84.9464 124.917 85.0147L124.903 85.0482ZM90.902 74.8687C90.792 74.5116 90.7103 74.1464 90.6578 73.7765L91.6539 68.349C91.8348 68.0121 92.0447 67.6915 92.2812 67.3909C92.6634 66.7909 93.1904 66.2966 93.8137 65.9538C94.4219 65.6233 95.0492 65.8484 95.7867 65.9538C96.5242 66.0592 97.3526 66.3035 98.2434 66.567C100.286 67.2517 102.283 68.0628 104.225 68.9957C106.439 70.0642 108.774 70.8635 111.178 71.3765C113.593 71.821 116.062 71.8985 118.5 71.6065C120.642 71.3413 122.804 71.2931 124.956 71.4628C125.795 71.548 126.626 71.7002 127.441 71.9178C128.122 72.1764 128.725 72.6052 129.194 73.1633C129.586 73.6494 129.908 74.188 130.152 74.7633C130.28 75.0099 130.384 75.2682 130.463 75.5346L129.481 80.9573C129.306 81.1718 129.117 81.375 128.916 81.5657C128.476 82.0133 127.976 82.3985 127.431 82.7105C126.799 83.0681 126.084 83.2547 125.358 83.2519C124.52 83.1556 123.691 82.9954 122.877 82.7728C120.81 82.1598 118.81 81.3414 116.906 80.3297C114.726 79.1942 112.391 78.3871 109.976 77.9345C107.561 77.5383 105.108 77.4337 102.668 77.6232C100.521 77.8051 98.3652 77.8484 96.2129 77.7525C95.2886 77.6759 94.441 77.5753 93.6987 77.4507C92.9565 77.3262 92.3052 77.2831 91.855 76.7609C91.3829 76.2108 91.0539 75.5526 90.8973 74.8448L90.902 74.8687ZM61.8145 70.0304C61.4779 69.6299 61.2444 69.1529 61.1345 68.6412C61.0532 68.3761 60.9908 68.1056 60.9478 67.8317L61.6852 63.8365C61.8216 63.5927 61.982 63.3632 62.1641 63.1515C62.4454 62.7099 62.8343 62.3473 63.2943 62.0976C63.7444 61.8533 64.1994 62.0114 64.731 62.0976C65.2625 62.1838 65.8803 62.3563 66.5268 62.5479C68.0324 63.0518 69.5054 63.6486 70.9373 64.3347C72.5654 65.1046 74.279 65.6787 76.0422 66.0448C77.8214 66.3681 79.6387 66.4246 81.4345 66.2125C83.0151 66.0155 84.6116 65.9802 86.1994 66.1071C86.8149 66.1724 87.4247 66.2829 88.0239 66.4377C88.5233 66.6294 88.9652 66.9461 89.3074 67.3574C89.6034 67.7145 89.8455 68.1132 90.0257 68.5406C90.1208 68.7227 90.1978 68.9136 90.2556 69.1107L89.5516 73.1154C89.4239 73.2755 89.2847 73.426 89.135 73.5657C88.8113 73.8948 88.4458 74.1798 88.0479 74.4136C87.5804 74.6731 87.0549 74.8099 86.5202 74.8112C85.9026 74.7451 85.291 74.6314 84.6909 74.4711C83.1682 74.0193 81.694 73.4175 80.2899 72.6747C78.6856 71.833 76.9652 71.234 75.185 70.8975C73.4077 70.6091 71.6026 70.532 69.8071 70.6676C68.2289 70.8013 66.6437 70.8333 65.0614 70.7634C64.3814 70.7059 63.7588 70.6388 63.2129 70.5382C62.667 70.4376 62.1833 70.4137 61.8481 70.0256L61.8145 70.0304ZM40.9399 65.4844C40.7012 65.2111 40.5363 64.8813 40.461 64.5263C40.4052 64.3426 40.362 64.1554 40.3317 63.9658L40.8394 61.2209C40.931 61.0515 41.0384 60.8911 41.1602 60.7419C41.354 60.4424 41.6188 60.1955 41.9312 60.0234C42.2582 59.9083 42.6147 59.9083 42.9417 60.0234C43.3152 60.0952 43.7318 60.2006 44.1772 60.3299C45.2124 60.6746 46.2248 61.0842 47.2085 61.5563C48.3415 62.0946 49.5342 62.4967 50.7619 62.7539C51.9832 62.9768 53.2312 63.0139 54.4636 62.864C55.5487 62.7303 56.6445 62.7062 57.7344 62.7922C58.1602 62.8315 58.5817 62.9084 58.9939 63.0221C59.341 63.1513 59.6481 63.3694 59.8846 63.6545C60.0802 63.9031 60.2412 64.177 60.3635 64.4688C60.4284 64.5945 60.4813 64.726 60.5215 64.8616L60.0427 67.6017C59.9576 67.7119 59.863 67.8145 59.7601 67.9083C59.535 68.1346 59.2805 68.3295 59.0035 68.4879C58.6842 68.6712 58.3228 68.7685 57.9547 68.7706C57.5297 68.7213 57.1087 68.6413 56.6953 68.531C55.6476 68.2213 54.6337 67.8073 53.6687 67.2951C52.5656 66.7162 51.3826 66.3045 50.1585 66.0736C48.9351 65.8748 47.6923 65.8234 46.4567 65.9203C45.3705 66.0119 44.2797 66.0343 43.1907 65.9874C42.7118 65.949 42.2904 65.8963 41.9168 65.8341C41.5433 65.7718 41.2081 65.7526 40.9591 65.4844H40.9399ZM36.5821 59.5826C37.9325 59.7551 38.8137 60.991 39.2542 62.1407L39.2016 62.2557C38.6077 63.0509 38.4593 64.4017 37.4057 64.8185C36.3522 65.2353 34.791 64.8185 33.7997 64.4832C32.5786 64.0808 31.3431 63.7886 30.1315 63.3862C29.5616 63.1946 28.9869 62.9646 28.4171 62.7299C27.8472 62.4952 27.7754 62.1838 27.2965 61.8437C27.67 60.9623 29.0013 60.9862 29.8298 60.8856C30.8835 60.6906 31.9173 60.4004 32.9186 60.0186C34.0955 59.6396 35.3355 59.4964 36.5677 59.597L36.5821 59.5826ZM61.5607 30.1793L61.4841 30.2656C60.7897 30.7829 60.2965 31.8751 59.31 31.9614C58.3235 32.0476 57.1119 31.2668 56.3552 30.7398C55.4358 30.0787 54.4684 29.5135 53.5586 28.862C53.1323 28.5554 52.7013 28.2105 52.2847 27.856C51.8681 27.5015 51.9064 27.2381 51.5903 26.8213C52.1219 26.1746 53.2377 26.5387 53.9848 26.6584C54.9256 26.7687 55.8746 26.7928 56.8198 26.7303C57.9073 26.7177 58.9865 26.9213 59.9948 27.3291C61.0866 27.8081 61.5128 29.0919 61.5847 30.2033L61.5607 30.1793ZM77.9434 36.0236C78.206 36.2217 78.411 36.4863 78.5372 36.7901C78.6377 37.0505 78.7053 37.3224 78.7384 37.5996C78.761 37.7213 78.7723 37.8448 78.7719 37.9685L77.6417 40.1529C77.6417 40.1529 77.5028 40.2583 77.3161 40.3397C77.0708 40.4731 76.808 40.5714 76.5355 40.6319C76.218 40.7018 75.8877 40.687 75.5777 40.5888C75.2326 40.441 74.8996 40.2664 74.5816 40.0667C73.783 39.5344 73.0387 38.9246 72.3596 38.2463C71.5762 37.4726 70.684 36.8174 69.7114 36.3014C68.7319 35.8176 67.6982 35.4525 66.6321 35.214C65.6949 35.0088 64.7719 34.7432 63.869 34.4188C63.5143 34.2813 63.1688 34.1213 62.8346 33.9398C62.5377 33.7817 62.2551 33.6811 62.1354 33.3985C62.0074 33.1081 61.9563 32.7897 61.9869 32.4739C61.985 32.3134 61.9978 32.1531 62.0253 31.9949L63.165 29.8153C63.285 29.696 63.4147 29.5871 63.5529 29.4895C63.7974 29.2895 64.0865 29.1515 64.3957 29.0871C64.7022 29.0249 64.9465 29.2021 65.2434 29.3554C65.5735 29.5317 65.8933 29.7268 66.2011 29.9398C66.9825 30.4993 67.7294 31.1056 68.4375 31.7554C69.2422 32.4978 70.1329 33.1411 71.0906 33.6715C72.0613 34.1813 73.1047 34.5384 74.1842 34.7302C75.1356 34.9004 76.0676 35.1652 76.9665 35.5206C77.309 35.667 77.6403 35.8383 77.9578 36.0332L77.9434 36.0236ZM101.524 46.4666C101.894 46.7586 102.186 47.1391 102.371 47.5732C102.522 47.9532 102.623 48.3508 102.673 48.7564C102.699 48.9343 102.715 49.1134 102.721 49.2929L101.045 52.445C100.894 52.5522 100.734 52.6452 100.566 52.7228C100.208 52.915 99.8267 53.0584 99.431 53.1492C98.9708 53.2495 98.4925 53.2298 98.0422 53.0917C97.5442 52.8757 97.0639 52.621 96.6056 52.33C95.4452 51.5555 94.3655 50.6664 93.3827 49.6761C92.2497 48.5555 90.959 47.6066 89.5516 46.8594C88.1264 46.156 86.6236 45.6222 85.074 45.269C83.7108 44.9749 82.3686 44.5908 81.0562 44.1193C80.4911 43.8942 79.993 43.6738 79.5525 43.4535C79.1119 43.2331 78.7144 43.0798 78.5372 42.6726C78.3569 42.2481 78.2813 41.7864 78.3169 41.3265C78.3169 41.0811 78.3361 40.836 78.3744 40.5936L80.0266 37.4224C80.2017 37.2478 80.3907 37.0876 80.5916 36.9433C80.9433 36.6484 81.3631 36.4458 81.8128 36.3541C82.2582 36.2583 82.5982 36.5218 83.034 36.7374C83.4697 36.9529 83.9438 37.2499 84.4419 37.5805C85.5764 38.3968 86.6577 39.2849 87.6791 40.2391C88.8513 41.3107 90.1471 42.2386 91.539 43.0032C92.9512 43.739 94.4651 44.2605 96.0309 44.5505C97.4093 44.7918 98.759 45.1755 100.058 45.6953C100.567 45.9117 101.057 46.1697 101.524 46.4666V46.4666ZM133.303 61.2593C133.808 61.6563 134.203 62.1757 134.452 62.7682C134.664 63.281 134.803 63.8213 134.864 64.373C134.906 64.6119 134.928 64.8538 134.931 65.0964L132.685 69.4077C132.481 69.5472 132.266 69.6705 132.043 69.7765C131.557 70.0377 131.038 70.2342 130.501 70.361C129.873 70.491 129.223 70.4614 128.609 70.2747C127.927 69.9804 127.267 69.6345 126.636 69.24C125.052 68.1875 123.577 66.9773 122.236 65.6281C120.698 64.1016 118.944 62.8103 117.03 61.7958C115.097 60.839 113.057 60.1154 110.953 59.6401C109.099 59.2369 107.272 58.7153 105.484 58.0785C104.723 57.7767 104.047 57.4701 103.454 57.1683C102.86 56.8665 102.314 56.6892 102.07 56.1096C101.821 55.5352 101.719 54.9081 101.773 54.2845C101.773 53.9541 101.799 53.6242 101.849 53.2977L104.095 48.9863C104.336 48.7567 104.594 48.5453 104.866 48.354C105.348 47.9545 105.92 47.6783 106.533 47.5492C107.127 47.4343 107.596 47.7792 108.19 48.0762C108.847 48.4266 109.487 48.8103 110.105 49.2259C111.652 50.3268 113.125 51.5269 114.516 52.8186C116.1 54.2664 117.847 55.5251 119.721 56.5695C121.644 57.5638 123.703 58.2692 125.832 58.6629C127.705 58.9912 129.539 59.5113 131.306 60.215C131.989 60.5054 132.648 60.8482 133.279 61.2401L133.303 61.2593ZM166.264 79.1321C163.353 77.695 158.123 70.8496 158.123 70.8496C154.488 64.3107 171.053 69.4125 171.053 69.4125L216.969 72.1717V76.3441C216.969 76.3441 181.531 75.8076 179.338 76.3441C177.145 76.8807 175.986 80.3154 174.396 81.4746C172.806 82.6339 169.171 80.598 166.255 79.1465L166.264 79.1321ZM159.421 105.134C159.421 105.134 161.902 97.714 162.333 90.7632C162.764 83.8123 167.71 82.9165 173.826 85.8243C179.941 88.732 206.955 91.9272 216.973 90.4709V99.3379C216.973 99.3379 181.234 99.3379 170.771 103.553C160.307 107.769 158.396 108.679 159.431 105.153L159.421 105.134ZM148.684 111.798C146.323 111.18 145.782 108.444 143.699 107.108C141.429 105.671 139.313 105.886 138.082 103.012C137.186 100.928 137.785 98.4948 136.554 96.5116C135.414 94.6721 133.825 92.9476 133.236 90.7871C131.895 85.8099 134.385 82.2794 132.455 77.5944L132.958 75.1992C132.737 74.7681 134.088 72.6124 134.193 72.1334C137.306 71.5155 135.912 71.0316 137.976 68.9478C140.993 65.9011 141.175 60.5455 147.104 62.7203C150.14 63.8413 153.976 69.4891 155.585 72.0903C158.573 76.9334 159.66 81.4603 159.378 87.1848C159.244 89.8482 158.42 91.8123 157.735 94.2745C157.003 96.9188 156.754 99.8313 156.524 102.571C156.212 106.188 153.751 113.144 148.684 111.807V111.798ZM122.93 138.978C122.605 138.896 122.285 138.795 121.972 138.676L118.179 135.505C117.998 135.222 117.838 134.926 117.7 134.619C117.396 134.072 117.232 133.458 117.222 132.832C117.222 132.229 117.653 131.874 118.055 131.362C118.524 130.814 119.021 130.291 119.544 129.795C120.919 128.565 122.375 127.429 123.902 126.394C125.624 125.205 127.19 123.807 128.566 122.231C129.909 120.616 130.992 118.801 131.775 116.852C132.453 115.134 133.308 113.491 134.327 111.951C134.738 111.358 135.201 110.803 135.711 110.294C136.194 109.894 136.777 109.634 137.397 109.541C137.944 109.466 138.498 109.466 139.044 109.541C139.289 109.565 139.532 109.602 139.772 109.652L143.565 112.823C143.665 113.047 143.747 113.28 143.809 113.517C143.976 114.044 144.071 114.59 144.092 115.141C144.102 115.769 143.947 116.389 143.642 116.938C143.227 117.526 142.764 118.079 142.258 118.59C140.926 119.87 139.464 121.005 137.895 121.977C136.114 123.095 134.516 124.481 133.159 126.087C131.855 127.726 130.76 129.52 129.898 131.429C129.15 133.112 128.292 134.744 127.331 136.315C126.89 136.979 126.466 137.562 126.057 138.063C125.636 138.542 125.348 139.021 124.754 139.136C124.137 139.246 123.501 139.2 122.906 139.002L122.93 138.978ZM103.296 152.549C102.914 152.499 102.551 152.356 102.237 152.133C102.057 152.031 101.886 151.914 101.725 151.783L100.039 149.23C99.9867 149.03 99.9467 148.826 99.9195 148.621C99.8395 148.243 99.8543 147.852 99.9626 147.481C100.063 147.117 100.389 146.978 100.719 146.753C101.092 146.512 101.479 146.292 101.878 146.097C102.908 145.611 103.971 145.198 105.058 144.861C106.29 144.467 107.468 143.92 108.563 143.232C109.652 142.515 110.621 141.633 111.437 140.617C112.146 139.72 112.949 138.901 113.831 138.173C114.182 137.901 114.553 137.656 114.942 137.441C115.3 137.294 115.689 137.242 116.072 137.292C116.403 137.346 116.725 137.442 117.03 137.579C117.176 137.629 117.316 137.695 117.447 137.776L119.128 140.329C119.138 140.489 119.138 140.649 119.128 140.808C119.132 141.15 119.092 141.492 119.008 141.824C118.902 142.196 118.701 142.535 118.424 142.806C118.079 143.074 117.712 143.313 117.327 143.52C116.309 144.04 115.238 144.451 114.133 144.746C112.881 145.089 111.69 145.625 110.603 146.336C109.544 147.074 108.579 147.94 107.73 148.913C106.987 149.777 106.187 150.59 105.336 151.347C104.962 151.658 104.603 151.931 104.277 152.157C103.952 152.382 103.669 152.592 103.32 152.549H103.296ZM90.3992 159.596C90.0161 158.638 91.0361 157.68 91.5629 156.99C92.2032 156.059 92.7562 155.072 93.2151 154.039C93.7989 152.887 94.6141 151.868 95.6095 151.045C96.7492 150.197 98.3296 150.528 99.5268 151.131L99.5699 151.261C99.7279 152.324 100.614 153.512 100.149 154.614C99.6848 155.716 98.1859 156.53 97.2042 156.976C96.0022 157.551 94.8576 158.212 93.6508 158.772C93.0858 159.036 92.4776 159.275 91.8694 159.5C91.2612 159.725 91.0074 159.5 90.3849 159.601L90.3992 159.596ZM232.288 110.567V27.3434C232.281 20.0955 229.4 13.1465 224.277 8.02049C219.154 2.89452 212.209 0.0101436 204.963 0L27.3348 0C20.0879 0.00887374 13.1403 2.89254 8.01597 8.01851C2.89163 13.1445 0.00887093 20.0942 0 27.3434L0 172.583C0.00760606 179.832 2.88996 186.783 8.01457 191.909C13.1392 197.035 20.0875 199.919 27.3348 199.926H132.972C144.408 222.474 167.768 238 194.748 238C232.944 238 264.019 206.915 264.019 168.707C264.005 157.135 261.093 145.751 255.549 135.594C250.006 125.437 242.007 116.831 232.283 110.562L232.288 110.567ZM194.729 225.626C183.477 225.626 172.478 222.289 163.122 216.035C153.766 209.782 146.474 200.894 142.168 190.495C137.862 180.096 136.736 168.654 138.931 157.614C141.126 146.575 146.544 136.435 154.501 128.476C162.457 120.517 172.594 115.097 183.63 112.901C194.666 110.705 206.105 111.832 216.501 116.139C226.896 120.447 235.782 127.741 242.033 137.1C248.284 146.458 251.621 157.461 251.621 168.717C251.603 183.805 245.603 198.27 234.938 208.938C224.273 219.607 209.812 225.609 194.729 225.626ZM198.737 134.054L198.651 133.996C198.565 133.92 198.469 133.857 198.378 133.79C198.287 133.723 198.077 133.589 197.928 133.493L197.631 133.311C197.54 133.263 197.435 133.225 197.344 133.177C197.253 133.129 197.023 133.043 196.865 132.981C196.707 132.918 196.63 132.885 196.515 132.851C196.401 132.818 196.314 132.803 196.219 132.78C196.123 132.756 195.888 132.712 195.74 132.684C195.591 132.655 195.495 132.636 195.371 132.621C195.246 132.607 195.141 132.621 195.031 132.621C194.921 132.621 194.863 132.597 194.777 132.597C194.691 132.597 194.609 132.597 194.523 132.621C194.437 132.645 194.293 132.621 194.183 132.621C194.073 132.621 193.934 132.665 193.81 132.684C193.685 132.703 193.475 132.741 193.307 132.78C193.211 132.803 193.111 132.823 193.015 132.851C192.919 132.88 192.78 132.938 192.665 132.981C192.55 133.024 192.34 133.1 192.186 133.177L191.904 133.311L191.602 133.493C191.449 133.589 191.3 133.685 191.162 133.79C191.063 133.853 190.969 133.922 190.879 133.996L190.798 134.054L165.953 155.04C164.733 156.11 163.982 157.615 163.861 159.233C163.74 160.851 164.259 162.452 165.306 163.691C166.353 164.93 167.845 165.708 169.46 165.858C171.075 166.008 172.684 165.517 173.941 164.492L188.599 152.109V198.628C188.599 200.269 189.251 201.844 190.412 203.004C191.572 204.165 193.146 204.817 194.787 204.817C196.428 204.817 198.001 204.165 199.162 203.004C200.322 201.844 200.974 200.269 200.974 198.628V152.113L215.633 164.497C216.253 165.021 216.971 165.418 217.744 165.665C218.518 165.912 219.333 166.004 220.142 165.936C220.951 165.868 221.739 165.641 222.461 165.268C223.183 164.895 223.824 164.384 224.348 163.764C224.872 163.143 225.269 162.425 225.516 161.651C225.763 160.877 225.855 160.062 225.787 159.253C225.719 158.443 225.492 157.655 225.12 156.933C224.747 156.211 224.236 155.569 223.616 155.045L198.737 134.054Z" fill="#9ECBFF"/>
</g>
<defs>
<clipPath id="clip0_189_38372">
<rect width="264" height="238" fill="white"/>
</clipPath>
</defs>
</svg>
